# AST/ASF file generated using VICON BodyLanguage
# -----------------------------------------------
:version 1.10
:name VICON
:units
  mass 1.0
  length 0.45
  angle deg
:documentation
   .ast/.asf automatically generated from VICON data using
   VICON BodyBuilder and BodyLanguage model FoxedUp or BRILLIANT.MOD
:root
   order TX TY TZ RX RY RZ
   axis XYZ
   position 0 0 0  
   orientation 0 0 0 
:bonedata
  begin
     id 1 
     name lhipjoint
     direction 0.541323 -0.757556 0.364798 
     length 2.47576 
     axis 0 0 0  XYZ
  end
  begin
     id 2 
     name lfemur
     direction 0.34202 -0.939693 0  
     length 7.46493  
     axis 0 0 20  XYZ
    dof rx ry rz
    limits (-160.0 20.0)
           (-70.0 70.0)
           (-60.0 70.0)
  end
  begin
     id 3 
     name ltibia
     direction 0.34202 -0.939693 0   
     length 7.73805   
     axis 0 0 20   XYZ
    dof rx
    limits (-10.0 170.0)
  end
  begin
     id 4 
     name lfoot
     direction 0.107174 -0.294458 0.949636   
     length 2.25864   
     axis -90 7.62852e-016 20   XYZ
    dof rx rz
    limits (-45.0 90.0)
           (-70.0 20.0)
  end
  begin
     id 5 
     name ltoes
     direction 1.53606e-011 -4.21934e-011 1   
     length 1.12451   
     axis -90 7.62852e-016 20   XYZ
    dof rx
    limits (-90.0 20.0)
  end
  begin
     id 6 
     name rhipjoint
     direction -0.524745 -0.766967 0.36933   
     length 2.44538  
     axis 0 0 0  XYZ 
  end
  begin
     id 7 
     name rfemur
     direction -0.34202 -0.939693 0   
     length 7.61604   
     axis 0 0 -20   XYZ
    dof rx ry rz
    limits (-160.0 20.0)
           (-70.0 70.0)
           (-70.0 60.0)
  end
  begin
     id 8 
     name rtibia
     direction -0.34202 -0.939693 0   
     length 7.61056   
     axis 0 0 -20   XYZ
    dof rx
    limits (-10.0 170.0)
 end
 begin
     id 9 
     name rfoot
     direction -0.12616 -0.346623 0.929482   
     length 2.46372  
     axis -90 -7.62852e-016 -20   XYZ
    dof rx rz
    limits (-45.0 90.0)
           (-20.0 70.0)
  end
  begin
     id 10 
     name rtoes
     direction -1.53531e-011 -4.22004e-011 1   
     length 1.21611   
     axis -90 -7.62852e-016 -20   XYZ
    dof rx
    limits (-90.0 20.0)
  end
  begin
     id 11 
     name lowerback
     direction -0.000778023 0.997293 -0.0735223   
     length 2.06139   
     axis 0 0 0   XYZ
    dof rx ry rz
    limits (-20.0 45.0)
           (-30.0 30.0)
           (-30.0 30.0)
  end
  begin
     id 12 
     name upperback
     direction 0.0222598 0.999722 -0.0078355   
     length 2.06383   
     axis 0 0 0   XYZ
    dof rx ry rz
    limits (-20.0 45.0)
           (-30.0 30.0)
           (-30.0 30.0)
  end
  begin
     id 13 
     name thorax
     direction 0.0219654 0.999405 0.0265994   
     length 2.07163   
     axis 0 0 0   XYZ
    dof rx ry rz
    limits (-20.0 45.0)
           (-30.0 30.0)
           (-30.0 30.0)
  end
  begin
     id 14 
     name lowerneck
     direction 0.0213282 0.988147 0.15202   
     length 1.75969   
     axis 0 0 0   XYZ
    dof rx ry rz
    limits (-20.0 45.0)
           (-30.0 30.0)
           (-30.0 30.0)
  end
  begin
     id 15 
     name upperneck
     direction -0.0546456 0.982624 -0.177379   
     length 1.79244   
     axis 0 0 0   XYZ
    dof rx ry rz
    limits (-20.0 45.0)
           (-30.0 30.0)
           (-30.0 30.0)
  end
  begin
     id 16
     name head
     direction -0.0199987 0.996855 -0.076686  
     length 1.80555  
     axis 0 0 0   XYZ
    dof rx ry rz
    limits (-20.0 45.0)
           (-30.0 30.0)
           (-30.0 30.0)
  end
  begin
     id 17 
     name lclavicle
     direction 0.929565 0.363219 -0.063096  
     length 3.55722  
     axis 0 0 0   XYZ
    dof ry rz
    limits (-20.0 10.0)
           (0.0 20.0)
  end
  begin
     id 18 
     name lhumerus
     direction 1 -4.48993e-011 -2.36203e-027   
     length 4.92785   
     axis 180 -30 -90   XYZ
    dof rx ry rz
    limits (-60.0 90.0)
           (-90.0 90.0)
           (-90.0 90.0)
  end
  begin
     id 19
     name lradius
     direction 1 -4.48947e-011 2.02997e-027   
     length 3.44052   
     axis 180 -30 -90   XYZ
    dof rx
    limits (-10.0 170.0)
  end
  begin
     id 20
     name lwrist
     direction 1 -4.48962e-011 1.45991e-027   
     length 1.72026   
     axis 1.49639e-024 90 90   XYZ
    dof ry
    limits (-180.0 0.0)
 end
  begin
     id 21 
     name lhand
     direction 1 -4.48984e-011 2.91906e-027   
     length 0.654326   
     axis -1.863e-015 90 90   XYZ
    dof rx rz
    limits (-90.0 90.0)
           (-45.0 45.0)
  end
  begin
     id 22 
     name lfingers
     direction 1 -4.48961e-011 5.83968e-027   
     length 0.527534   
     axis -3.72598e-015 90 90   XYZ
    dof rx
    limits (0.0 90.0)
  end
  begin
     id 23
     name lthumb
     direction 0.707107 -6.34963e-011 0.707107   
     length 0.757437   
     axis -90 45 -6.68868e-015   XYZ
    dof rx rz
    limits (-45.0 45.0)
           (-45.0 45.0)
  end
  begin
     id 24 
     name rclavicle
     direction -0.902944 0.422599 -0.0781198   
     length 3.54432  
     axis 0 0 0   XYZ 
    dof ry rz
    limits (-10.0 20.0)
           (-20.0 0.0)
  end
  begin
     id 25 
     name rhumerus
     direction -1 -4.48953e-011 -4.75835e-028  
     length 5.09181   
     axis 180 30 90   XYZ
    dof rx ry rz
    limits (-90.0 60.0)
           (-90.0 90.0)
           (-90.0 90.0)
  end
  begin
     id 26 
     name rradius
     direction -1 -4.48986e-011 -3.25889e-027   
     length 3.49865   
     axis 180 30 90   XYZ
    dof rx
    limits (-10.0 170.0)
  end
  begin
     id 27 
     name rwrist
     direction -1 -4.48963e-011 1.45989e-027   
     length 1.74933   
     axis 1.49639e-024 -90 -90   XYZ
    dof ry
    limits (-180.0 0.0)
  end
  begin
     id 28
     name rhand
     direction -1 -4.49003e-011 2.91844e-027   
     length 0.66641   
     axis -1.863e-015 -90 -90   XYZ
    dof rx rz
    limits (-90.0 90.0)
           (-45.0 45.0)
  end
  begin
     id 29
     name rfingers
     direction -1 -4.48973e-011 5.83886e-027   
     length 0.537277   
     axis -3.72598e-015 -90 -90   XYZ
    dof rx
    limits (0.0 90.0)
  end
  begin
     id 30
     name rthumb
     direction -0.707107 -6.34976e-011 0.707107   
     length 0.771425   
     axis -90 -45 6.68868e-015   XYZ
    dof rx rz
    limits (-45.0 45.0)
           (-45.0 45.0)
  end
:hierarchy
  begin
    root lhipjoint rhipjoint lowerback
    lhipjoint lfemur
    lfemur ltibia
    ltibia lfoot
    lfoot ltoes
    rhipjoint rfemur
    rfemur rtibia
    rtibia rfoot
    rfoot rtoes
    lowerback upperback
    upperback thorax
    thorax lowerneck lclavicle rclavicle
    lowerneck upperneck
    upperneck head
    lclavicle lhumerus
    lhumerus lradius
    lradius lwrist
    lwrist lhand lthumb
    lhand lfingers
    rclavicle rhumerus
    rhumerus rradius
    rradius rwrist
    rwrist rhand rthumb
    rhand rfingers
  end

#!OML:ASF H:\LiuWeirdWalks\Patient Classification 1\Patient 1\Session 1\male.ASF
:FULLY-SPECIFIED
:DEGREES
251
root 1.56278 18.0889 3.68228 4.16611 1.71884 -2.85171
lowerback 4.52501 -1.93207 -1.55831
upperback 3.06422 -2.62222 -3.05827
thorax 0.540601 -1.30594 -2.16254
lowerneck -10.748 -0.937313 1.37931
upperneck 37.6975 -1.27325 -1.4902
head 14.8369 -0.604855 -1.07872
rclavicle 1.90833e-014 2.70347e-014
rhumerus -59.5863 64.1703 -82.0511
rradius 114.075
rwrist -22.8695
rhand 40.1851 -11.8254
rfingers 7.12502
rthumb 62.5484 -22.6193
lclavicle 1.90833e-014 2.70347e-014
lhumerus -11.0146 5.31566 49.1927
lradius 73.3295
lwrist 13.033
lhand 9.48703 -9.26482
lfingers 7.12502
lthumb 34.6396 17.3746
rfemur -13.3082 -0.957484 20.409
rtibia 31.5623
rfoot -11.8576 -25.2384
rtoes -4.23504
lfemur -10.0542 -0.306681 -12.3838
ltibia 26.9908
lfoot -10.2993 22.1696
ltoes -8.35885
252
root 1.55711 18.0848 3.68438 4.08448 1.5639 -2.96958
lowerback 4.56308 -1.93077 -1.39888
upperback 2.92268 -2.62217 -3.38147
thorax 0.351904 -1.30188 -2.57973
lowerneck -10.3264 -0.823497 1.42059
upperneck 37.5006 -1.54003 -0.338564
head 14.6562 -0.565891 -0.642131
rclavicle 3.85642e-014 2.22639e-014
rhumerus -58.0732 64.7626 -80.0878
rradius 115.564
rwrist -24.823
rhand 41.2795 -11.9942
rfingers 7.12502
rthumb 63.447 -21.5617
lclavicle 3.85642e-014 2.22639e-014
lhumerus -11.2676 8.28852 50.6924
lradius 73.7988
lwrist 14.7303
lhand 9.05249 -8.96711
lfingers 7.12502
lthumb 34.2271 17.766
rfemur -13.2267 -0.832122 20.5506
rtibia 31.5595
rfoot -11.8732 -25.1975
rtoes -4.20863
lfemur -9.96312 -0.17506 -12.2379
ltibia 27.0794
lfoot -10.3885 22.1997
ltoes -8.32896
253
root 1.55141 18.0808 3.68701 4.00319 1.41961 -3.07913
lowerback 4.57976 -1.85867 -1.18027
upperback 2.8313 -2.5239 -3.77022
thorax 0.225689 -1.2483 -3.10542
lowerneck -10.0468 -0.769666 1.59071
upperneck 37.2706 -1.9543 0.898722
head 14.5 -0.56223 -0.220707
rclavicle -7.55382e-015 0
rhumerus -56.2026 65.0214 -77.7567
rradius 116.951
rwrist -26.8478
rhand 42.56 -12.2084
rfingers 7.12502
rthumb 64.4803 -20.2274
lclavicle -7.55382e-015 0
lhumerus -11.2543 10.9881 52.1747
lradius 74.2909
lwrist 16.6963
lhand 8.57852 -8.60785
lfingers 7.12502
lthumb 33.7769 18.2252
rfemur -13.146 -0.722013 20.6833
rtibia 31.5648
rfoot -11.8975 -25.1541
rtoes -4.17783
lfemur -9.87002 -0.0380642 -12.0988
ltibia 27.1634
lfoot -10.4811 22.2128
ltoes -8.28569
254
root 1.54594 18.0768 3.69019 3.9229 1.28964 -3.16897
lowerback 4.58435 -1.75083 -0.968178
upperback 2.79464 -2.37607 -4.173
thorax 0.167293 -1.1701 -3.6481
lowerneck -9.96204 -0.747639 1.80609
upperneck 37.0259 -2.44426 2.1924
head 14.3934 -0.578206 0.199729
rclavicle -6.75868e-015 1.11319e-014
rhumerus -53.8942 65.0665 -74.9524
rradius 118.247
rwrist -28.9486
rhand 44.006 -12.4987
rfingers 7.12502
rthumb 65.621 -18.6067
lclavicle -6.75868e-015 1.11319e-014
lhumerus -11.0451 13.5141 53.6937
lradius 74.7941
lwrist 18.9532
lhand 8.08393 -8.15562
lfingers 7.12502
lthumb 33.3068 18.7793
rfemur -13.0667 -0.635819 20.7921
rtibia 31.5801
rfoot -11.9299 -25.102
rtoes -4.15119
lfemur -9.77531 0.0938506 -11.9813
ltibia 27.2408
lfoot -10.5703 22.2177
ltoes -8.24236
255
root 1.54048 18.0729 3.6937 3.84462 1.17184 -3.24289
lowerback 4.59312 -1.64379 -0.810203
upperback 2.77535 -2.23066 -4.54217
thorax 0.130962 -1.09389 -4.12767
lowerneck -9.99674 -0.723883 1.99697
upperneck 36.7875 -2.93109 3.50593
head 14.3293 -0.594288 0.629967
rclavicle 1.03368e-014 1.43125e-014
rhumerus -51.2087 65.019 -71.7173
rradius 119.459
rwrist -31.0903
rhand 45.6172 -12.8829
rfingers 7.12502
rthumb 66.8542 -16.6348
lclavicle 1.03368e-014 1.43125e-014
lhumerus -10.8059 15.9322 55.2395
lradius 75.3209
lwrist 21.4757
lhand 7.60755 -7.64958
lfingers 7.12502
lthumb 32.8538 19.3814
rfemur -12.991 -0.56295 20.882
rtibia 31.605
rfoot -11.9716 -25.0454
rtoes -4.11936
lfemur -9.67939 0.210298 -11.8821
ltibia 27.3112
lfoot -10.6539 22.2275
ltoes -8.19811
256
root 1.53499 18.069 3.69768 3.76489 1.0705 -3.30067
lowerback 4.60411 -1.511 -0.668642
upperback 2.82353 -2.04845 -4.90998
thorax 0.169239 -0.998319 -4.60167
lowerneck -10.2914 -0.720398 2.25199
upperneck 36.5312 -3.46379 4.80045
head 14.3277 -0.620852 1.03174
rclavicle -1.78906e-014 3.97569e-014
rhumerus -48.1055 64.7133 -68.0387
rradius 120.58
rwrist -33.247
rhand 47.3213 -13.3578
rfingers 7.12502
rthumb 68.1082 -14.3251
lclavicle -1.78906e-014 3.97569e-014
lhumerus -10.3708 18.1725 56.8463
lradius 75.845
lwrist 24.3073
lhand 7.13463 -7.091
lfingers 7.12502
lthumb 32.4038 20.0331
rfemur -12.9132 -0.509958 20.9535
rtibia 31.6387
rfoot -12.0286 -24.9829
rtoes -4.09016
lfemur -9.5798 0.305263 -11.8018
ltibia 27.3746
lfoot -10.728 22.2472
ltoes -8.16771
257
root 1.5292 18.0652 3.7022 3.68331 0.982232 -3.35008
lowerback 4.64134 -1.46761 -0.65917
upperback 2.773 -1.99528 -5.15727
thorax 0.0919305 -0.971307 -4.86706
lowerneck -10.3404 -0.631242 2.35355
upperneck 36.2343 -3.78603 6.02121
head 14.2538 -0.594823 1.46015
rclavicle -7.55382e-015 -1.11319e-014
rhumerus -44.8532 64.6535 -64.1458
rradius 121.628
rwrist -35.3745
rhand 49.0641 -13.8729
rfingers 7.12502
rthumb 69.3274 -11.641
lclavicle -7.55382e-015 -1.11319e-014
lhumerus -10.3601 20.436 58.3291
lradius 76.4547
lwrist 27.4049
lhand 6.73515 -6.49137
lfingers 7.12502
lthumb 32.0236 20.7098
rfemur -12.8318 -0.465178 21.0165
rtibia 31.6778
rfoot -12.0908 -24.9212
rtoes -4.06146
lfemur -9.47619 0.368436 -11.7324
ltibia 27.4331
lfoot -10.7944 22.2897
ltoes -8.14587
258
root 1.52299 18.0614 3.70772 3.59387 0.899009 -3.39038
lowerback 4.68321 -1.42097 -0.674186
upperback 2.75908 -1.93719 -5.38669
thorax 0.0520782 -0.941574 -5.10139
lowerneck -10.5629 -0.54149 2.5011
upperneck 35.9288 -4.09437 7.16145
head 14.2189 -0.564735 1.84802
rclavicle 9.14409e-015 2.22639e-014
rhumerus -41.3154 64.3904 -59.9684
rradius 122.585
rwrist -37.4767
rhand 50.7396 -14.4195
rfingers 7.12502
rthumb 70.4281 -8.73788
lclavicle 9.14409e-015 2.22639e-014
lhumerus -10.2891 22.5451 59.786
lradius 77.0585
lwrist 30.7338
lhand 6.39974 -5.90483
lfingers 7.12502
lthumb 31.7041 21.36
rfemur -12.739 -0.41802 21.071
rtibia 31.72
rfoot -12.1604 -24.8655
rtoes -4.03282
lfemur -9.35956 0.403591 -11.6744
ltibia 27.4878
lfoot -10.8573 22.3566
ltoes -8.12963
259
root 1.51628 18.0575 3.71467 3.50021 0.82302 -3.43243
lowerback 4.71769 -1.37643 -0.703444
upperback 2.74483 -1.88222 -5.59289
thorax 0.0173465 -0.913669 -5.30381
lowerneck -10.8305 -0.452408 2.68157
upperneck 35.5871 -4.37363 8.20542
head 14.1786 -0.530871 2.193
rclavicle 9.93923e-015 5.08889e-014
rhumerus -37.7032 63.9438 -55.7102
rradius 123.456
rwrist -39.5065
rhand 52.3337 -14.9623
rfingers 7.12502
rthumb 71.3989 -5.62432
lclavicle 9.93923e-015 5.08889e-014
lhumerus -10.2556 24.4719 61.1664
lradius 77.6571
lwrist 34.28
lhand 6.16503 -5.30053
lfingers 7.12502
lthumb 31.4806 22.0082
rfemur -12.6356 -0.369926 21.13
rtibia 31.7617
rfoot -12.2341 -24.8175
rtoes -4.00184
lfemur -9.23461 0.427116 -11.6139
ltibia 27.5403
lfoot -10.918 22.4318
ltoes -8.12128
